<svg id="Layer_1" data-name="Layer 1" xmlns="http://www.w3.org/2000/svg" viewBox="0 0 714.33 540"><defs><style>.cls-1{fill:#a3bb46;}.cls-2{fill:#3f2417;}.cls-3{fill:#8e9d37;}.cls-4{fill:#392417;}</style></defs><title>Artboard 1 copy 5</title><path class="cls-1" d="M472.66,255.51l-29.29-48.35s4.92-7.11,13.34-4.35c7,2.29,7,13.1,7,13.1s10.84-5.53,19.09.9c10.22,8,7.6,19.45,1.91,26.45,0,0,10.28,1.53,14.44,13.56L490,258.59Z"/><path class="cls-2" d="M456.76,202.91a9.49,9.49,0,0,1,5.61,5.42,21.74,21.74,0,0,1,1.77,7.8l-.62-.38A22.16,22.16,0,0,1,476,213.47a17.6,17.6,0,0,1,14.69,18.8,22.5,22.5,0,0,1-5,11.94l-.74-1.9c7.5,1.48,13,7.69,14.92,14.49l0,.07a.68.68,0,0,1-.47.83l-.08,0c-3.08.47-6.19.81-9.29,1.19a.12.12,0,0,1-.14-.1.14.14,0,0,1,.09-.13c3-.79,6-1.63,9.08-2.34l-.53.92a22.94,22.94,0,0,0-5.52-8.17,19.17,19.17,0,0,0-8.43-4.46h-.06a1.19,1.19,0,0,1-.91-1.4,1.23,1.23,0,0,1,.23-.49A22.45,22.45,0,0,0,488.57,232a14.74,14.74,0,0,0-3-11.06,15.58,15.58,0,0,0-9.83-6.22,21.82,21.82,0,0,0-11.87,1.75.43.43,0,0,1-.58-.2l0-.18c-.13-4.9-1.46-11.06-6.62-13a.11.11,0,0,1-.07-.15A.14.14,0,0,1,456.76,202.91Z"/><polygon class="cls-2" points="338.45 234.2 344.86 234.16 345.5 227.89 339.08 227.92 338.45 234.2"/><polygon class="cls-2" points="329.9 234.24 336.31 234.21 336.95 227.94 330.53 227.97 329.9 234.24"/><polygon class="cls-2" points="337.53 243.25 343.95 243.22 344.58 236.95 338.16 236.98 337.53 243.25"/><polygon class="cls-2" points="328.98 243.3 335.4 243.27 336.03 236.99 329.61 237.03 328.98 243.3"/><polygon class="cls-2" points="418.5 230.86 425.46 230.83 426.16 224.02 419.19 224.06 418.5 230.86"/><polygon class="cls-2" points="409.23 230.91 416.18 230.88 416.88 224.08 409.92 224.1 409.23 230.91"/><polygon class="cls-2" points="417.51 240.69 424.47 240.66 425.16 233.85 418.19 233.89 417.51 240.69"/><polygon class="cls-2" points="408.23 240.74 415.19 240.71 415.88 233.9 408.92 233.94 408.23 240.74"/><polyline class="cls-1" points="250.86 319.33 365.31 410.58 480.56 319.33"/><path class="cls-2" d="M251.15,319c10.67,6.18,20.7,13.18,31.06,19.74l30,21.06c10.14,6.85,19.55,14.62,29.32,21.93l29.06,22.25-10.56,0,29.26-22.25c9.84-7.31,19.32-15.06,29.52-21.92L449,338.7c10.42-6.57,20.52-13.56,31.24-19.74l.59.73-115,91.62-.6.48-.58-.48L250.56,319.69Z"/><path class="cls-2" d="M219.39,318.86c12.13-1.82,24.26-2.61,36.39-3.94l36.38-2.24c24.25-1.27,48.51-1.21,72.77-1.84,24.25.67,48.5.55,72.76,1.87l36.38,2.23c12.13,1.33,24.26,2.1,36.39,3.92v.94l-145.53.47-145.54-.47Z"/><path class="cls-2" d="M219.39,258.28c12.13-1.82,24.26-2.6,36.39-3.94l36.38-2.23c24.25-1.28,48.51-1.22,72.77-1.85,24.25.67,48.5.55,72.76,1.88l36.38,2.23c12.13,1.32,24.26,2.1,36.39,3.91v.94l-145.53.47-145.54-.47Z"/><polygon class="cls-2" points="331.86 376.89 480.39 318.83 335.56 385.57 331.86 376.89"/><polygon class="cls-2" points="297.49 350.04 482.25 318.09 299.33 359.29 297.49 350.04"/><path class="cls-2" d="M195.92,226.85a178.19,178.19,0,0,1,35.49-67.38,180.2,180.2,0,0,1,61.27-46.42c23.45-10.87,49.6-17.18,75.66-16,26,1.3,51.83,8.23,73.6,21.86l-.42.84c-23.87-8.61-48.58-13.65-73.32-13.26-24.69.12-49.46,4-72.49,13.5-45.93,19-83.16,58.93-98.89,107.18Z"/><path class="cls-2" d="M250.21,411.21a126.46,126.46,0,0,1-36.79-35.79c-5.06-7.37-10.08-15.07-13.21-23.95a90.61,90.61,0,0,1-5.63-27.75l.65-.21c3.82,8.4,7.21,16.57,11,24.49s7.06,16.1,11.48,23.62a146.09,146.09,0,0,0,32.86,38.91Z"/><path class="cls-3" d="M164.61,290.35a15.27,15.27,0,0,1,1.23-3.06,13.66,13.66,0,0,1,2.26-3.14,13.14,13.14,0,0,1,3.43-2.58,12.55,12.55,0,0,1,4.73-1.38,12.89,12.89,0,0,1,5.6.59,13.55,13.55,0,0,1,4.65,2.68,14.16,14.16,0,0,1,3.31,4.3,15.41,15.41,0,0,1,1.6,5.41,15.61,15.61,0,0,1-.43,5.63,14.52,14.52,0,0,1-2.34,4.9,13.62,13.62,0,0,1-4,3.59,13.19,13.19,0,0,1-5.38,1.75,12.83,12.83,0,0,1-5.67-.62A14,14,0,0,1,169,305.7a14.71,14.71,0,0,1-4.75-9.31,21.41,21.41,0,0,1-.1-2.92A13.44,13.44,0,0,1,164.61,290.35Zm6.16,4.92a10,10,0,0,0,.81,3.05,8.43,8.43,0,0,0,1.69,2.48,7.22,7.22,0,0,0,2.43,1.61,6.39,6.39,0,0,0,3.05.38,6,6,0,0,0,3-1.09,7.12,7.12,0,0,0,2-2.21,9.24,9.24,0,0,0,1-2.76,9.36,9.36,0,0,0,.14-2.82,9.52,9.52,0,0,0-.73-2.75,9.08,9.08,0,0,0-1.57-2.54,6.88,6.88,0,0,0-2.39-1.76,6.15,6.15,0,0,0-3.18-.44,6.31,6.31,0,0,0-3,1,6.63,6.63,0,0,0-2,2.11,8.45,8.45,0,0,0-1.08,2.75A10.14,10.14,0,0,0,170.77,295.27Z"/><path class="cls-3" d="M198,278.59l8.17-.69c1.14-.09,2.13-.14,3-.13a11.55,11.55,0,0,1,2.16.18,7.2,7.2,0,0,1,1.64.48,8.8,8.8,0,0,1,1.38.8,8.13,8.13,0,0,1,2.68,3.2,11.68,11.68,0,0,1,1.14,4.14,11.24,11.24,0,0,1-.1,2.62,9.05,9.05,0,0,1-.84,2.74,7.92,7.92,0,0,1-1.81,2.38,7.06,7.06,0,0,1-3,1.56l7.82,8.89-7.55.63L206,296.9h-.08l.76,9-6.32.53Zm7.49,13.46,2.34-.19a5.44,5.44,0,0,0,2.29-.63,3.35,3.35,0,0,0,1.67-2.51,5.72,5.72,0,0,0,0-1.22,3.4,3.4,0,0,0-1.41-2.74,4.84,4.84,0,0,0-3.17-.66l-2.41.2Z"/><path class="cls-3" d="M229.25,282.41l-5.1.35-.44-6.26,16.79-1.15.43,6.25-5.07.35,1.49,21.62-6.61.46Z"/><path class="cls-3" d="M247.34,274.94l6.61-.39,1.64,27.89-6.61.39Z"/><path class="cls-3" d="M270.7,297.6l-1.18,4.1-7.11.33,9.11-28.4,5.22-.24,11.58,27.44-7.17.33-1.45-4Zm1.56-5.74,5.43-.25-3.1-9.42h-.11Z"/><path class="cls-3" d="M294.1,272.67l5.71-.17,10.55,17.24.07-.08-.81-17.46L316,272l.85,27.94-5.75.17-10.39-16.69-.07,0,.69,17-6.35.19Z"/><path class="cls-3" d="M331.78,295.6l-1.31,4.07-7.11.1,10-28.09,5.22-.08,10.72,27.79-7.19.1-1.32-4Zm1.74-5.68,5.44-.08-2.81-9.52h-.1Z"/><path class="cls-2" d="M370.93,271.41l8.2.06c1.15,0,2.12.06,2.95.14a13.75,13.75,0,0,1,2.13.37,7.85,7.85,0,0,1,1.59.64,7.58,7.58,0,0,1,1.31.92,8.25,8.25,0,0,1,2.37,3.43,11.61,11.61,0,0,1,.76,4.22,11.36,11.36,0,0,1-.33,2.6,8.76,8.76,0,0,1-1.1,2.65,7.81,7.81,0,0,1-2,2.22,7.11,7.11,0,0,1-3.07,1.28l7,9.57-7.57-.06-5.93-9.07h-.07l-.07,9-6.34,0Zm6.24,14.1,2.34,0a5.44,5.44,0,0,0,2.34-.42,3.29,3.29,0,0,0,1.89-2.35,5.62,5.62,0,0,0,.15-1.21,3.38,3.38,0,0,0-1.15-2.85,4.78,4.78,0,0,0-3.1-.95l-2.41,0Z"/><path class="cls-2" d="M398.25,271.69l14.4.3-.13,6.26-8.06-.16-.09,4.34,7.82.16-.13,6.27-7.81-.16-.11,4.79,8.07.17-.13,6.27-14.41-.3Z"/><path class="cls-2" d="M426.68,296.31l-1.5,4-7.11-.25,11.37-27.56,5.22.18L444,301l-7.18-.25-1.12-4.08Zm2-5.6,5.42.19-2.33-9.64h-.1Z"/><path class="cls-2" d="M452.38,273.38l6.62.33-1.06,21.64,7.67.37L465.3,302l-14.28-.7Z"/><path class="cls-2" d="M474.48,280.81l-5.1-.31.37-6.26,16.79,1-.37,6.26-5.07-.3-1.3,21.63-6.61-.39Z"/><path class="cls-2" d="M493.61,275.72l6.61.47-2,27.87-6.61-.46Z"/><path class="cls-2" d="M509.06,276.84,523.43,278l-.51,6.24-8-.64-.35,4.32,7.79.63-.5,6.25-7.8-.63-.38,4.78,8,.65-.5,6.25-14.37-1.17Z"/><path class="cls-2" d="M541.35,287.84c0-.23-.05-.5-.08-.82a2.85,2.85,0,0,0-.25-.94,2,2,0,0,0-.61-.78,2.28,2.28,0,0,0-1.18-.39,2.33,2.33,0,0,0-1.63.45,2,2,0,0,0-.84,1.51,2.57,2.57,0,0,0,.07,1.07,2.16,2.16,0,0,0,.67.92A12.18,12.18,0,0,0,539,290c.66.43,1.55,1,2.66,1.64a16,16,0,0,1,2.81,2.05,8.55,8.55,0,0,1,1.68,2.06,6,6,0,0,1,.74,2.13,9.31,9.31,0,0,1,.05,2.31,11.05,11.05,0,0,1-.74,3,7.3,7.3,0,0,1-1.77,2.59,8,8,0,0,1-3,1.71,12.44,12.44,0,0,1-8.87-1,8.16,8.16,0,0,1-2.65-2.48,7.59,7.59,0,0,1-1.18-3,11.33,11.33,0,0,1-.12-2.93l.08-.9,6.56.62a5.54,5.54,0,0,0,.11,2,3.14,3.14,0,0,0,.63,1.24,2.21,2.21,0,0,0,.84.63,3,3,0,0,0,.75.2,2.19,2.19,0,0,0,1.93-.67,3,3,0,0,0,.84-1.76,2.78,2.78,0,0,0-.12-1.18,2.3,2.3,0,0,0-.72-1,8.89,8.89,0,0,0-1.47-1c-.62-.38-1.41-.84-2.36-1.39-.45-.24-1-.58-1.68-1a9.26,9.26,0,0,1-1.94-1.66,8.39,8.39,0,0,1-1.53-2.48,7,7,0,0,1-.41-3.41,7.28,7.28,0,0,1,1.14-3.41,8.1,8.1,0,0,1,2.33-2.37,9.33,9.33,0,0,1,3.05-1.32A9.7,9.7,0,0,1,540,279a10.16,10.16,0,0,1,3.74,1.13,7.52,7.52,0,0,1,2.93,2.69,7.69,7.69,0,0,1,.75,1.57,8.66,8.66,0,0,1,.37,1.48,8,8,0,0,1,.1,1.35c0,.43,0,.85,0,1.25Z"/><polygon class="cls-2" points="254.36 226.31 234.4 258.75 304.57 252.56 343.95 179.71 304.53 201.17 304.53 213.31 294.37 223.97 294.37 187.48 304.87 194.63 308.47 191.35 293.92 182.06 277.21 190.59 277.21 194.15 281.26 195.64 281.26 212.9 254.36 226.31"/><polygon class="cls-2" points="379.05 246.1 424.12 171.29 379.31 188.66 379.31 200.79 369.14 211.46 369.14 162.59 379.64 169.74 383.24 166.46 368.69 157.17 350.88 166.31 350.88 169.87 354.94 171.36 354.94 202.18 379.05 246.1"/><polygon class="cls-2" points="343.95 194.69 375.86 252.69 364.93 252.69 339.52 204.17 343.95 194.69"/><polygon class="cls-2" points="424.12 187.91 419.03 196.83 453.87 255.51 465.02 255.51 424.12 187.91"/><path class="cls-4" d="M282,419.71l5.72-3.18,1.69,1-7.65,4.27-3.87,6.76-1.46-.84,3.9-6.81-.16-8.68,1.69,1Z"/><path class="cls-4" d="M283.44,430.09a5.41,5.41,0,0,1,.3-4.25,5.5,5.5,0,0,1,3.19-2.81,4.73,4.73,0,0,1,6.45,3.22,5.66,5.66,0,0,1-3.51,7.05,4.8,4.8,0,0,1-3.94-.1A4.93,4.93,0,0,1,283.44,430.09Zm4-5.73a4.51,4.51,0,0,0-2.66,5.32,3.27,3.27,0,0,0,4.6,2.29,4.52,4.52,0,0,0,2.65-5.32,3.26,3.26,0,0,0-4.59-2.29Z"/><path class="cls-4" d="M294.7,432.75l2.52-6.14,1.41.58-2.53,6.15a2.69,2.69,0,0,0,0,2.19,3.14,3.14,0,0,0,1.78,1.62,2.6,2.6,0,0,0,2.54-.25,5.17,5.17,0,0,0,1.92-2.46l2-4.89,1.41.58-4,9.71-1.41-.58.35-.83a4.28,4.28,0,0,1-3.35,0,4.92,4.92,0,0,1-2.64-2.33A3.87,3.87,0,0,1,294.7,432.75Z"/><path class="cls-4" d="M314.19,436a2.58,2.58,0,0,0-1.89-2.48,2.39,2.39,0,0,0-2.41.45,5.56,5.56,0,0,0-1.68,2.63l-1.67,5-1.45-.48,3.35-10,1.45.48-.27.79a4.3,4.3,0,0,1,6.1,3.4Z"/><path class="cls-4" d="M322.27,431.9l.32-1.35,10.11,2.37-.31,1.36-4.24-1L325,446.82l-1.63-.38,3.17-13.54Z"/><path class="cls-4" d="M338.14,441.54a2.59,2.59,0,0,0-2.23-2.17,2.38,2.38,0,0,0-2.32.79,5.54,5.54,0,0,0-1.27,2.85l-.92,5.17-1.51-.27,1.85-10.34,1.5.27-.15.82a4,4,0,0,1,3.06-.66,3.9,3.9,0,0,1,3.48,3.12Z"/><path class="cls-4" d="M340.46,445.81l.73-6.6,1.52.17L342,446a2.64,2.64,0,0,0,.63,2.09,3.17,3.17,0,0,0,2.16,1.07,2.61,2.61,0,0,0,2.37-1,5.15,5.15,0,0,0,1.16-2.89l.59-5.25,1.51.16-1.16,10.44-1.51-.17.1-.89a4.28,4.28,0,0,1-3.21.93,4.93,4.93,0,0,1-3.18-1.5A3.89,3.89,0,0,1,340.46,445.81Z"/><path class="cls-4" d="M356.9,446.58l-.47-.12-.55-.14c-.11,0-.3-.08-.58-.16a4,4,0,0,1-.61-.21l-.53-.24a1.88,1.88,0,0,1-.51-.32c-.12-.1-.26-.22-.41-.37a1.47,1.47,0,0,1-.35-.47,2.63,2.63,0,0,1-.19-.54,2.42,2.42,0,0,1-.07-.67A2.85,2.85,0,0,1,354,441a5.41,5.41,0,0,1,3.23-.75,3.92,3.92,0,0,1,3.85,2.64l-1.39.62a2.61,2.61,0,0,0-2.52-1.87,3.72,3.72,0,0,0-2.18.43,1.59,1.59,0,0,0-.8,1.35,1,1,0,0,0,.07.44.87.87,0,0,0,.29.35,2.53,2.53,0,0,0,.37.26,2.59,2.59,0,0,0,.53.2l.54.15.57.12.52.11q.87.2,1.47.39a8.55,8.55,0,0,1,1.29.56,2.59,2.59,0,0,1,1,1,2.52,2.52,0,0,1,.32,1.38,2.75,2.75,0,0,1-1.48,2.35,6,6,0,0,1-3.43.75,5.22,5.22,0,0,1-2.61-.76,3.68,3.68,0,0,1-1.57-1.89l1.4-.62a2.74,2.74,0,0,0,1,1.32,3.39,3.39,0,0,0,1.8.56,4.44,4.44,0,0,0,2.36-.45,1.59,1.59,0,0,0,1-1.33,1,1,0,0,0-.07-.46,1,1,0,0,0-.26-.36c-.13-.1-.24-.19-.35-.26a1.87,1.87,0,0,0-.48-.2l-.51-.15-.56-.14Z"/><path class="cls-4" d="M362.77,442.14v-1.39h1.34l0-3.48h1.53l0,3.48,2.42,0v1.4h-2.42l.06,9.11h-1.53l-.06-9.11Z"/><path class="cls-4" d="M370.63,445.93a4.36,4.36,0,0,0,1.3,2.89,3.35,3.35,0,0,0,2.65,1.07,4.67,4.67,0,0,0,2.31-.6,4,4,0,0,0,1.21-1.54l1.26.73a5,5,0,0,1-4.65,2.8,4.93,4.93,0,0,1-3.72-1.43,5.62,5.62,0,0,1-.54-7.86,4.72,4.72,0,0,1,7.19-.47,5.46,5.46,0,0,1,1.85,3.82Zm.13-1.41,6.9-.45a4.21,4.21,0,0,0-1.48-1.94,3.21,3.21,0,0,0-4.21.28A4.23,4.23,0,0,0,370.76,444.52Z"/><path class="cls-4" d="M383.29,448.92a5.46,5.46,0,0,1-2.13-3.69,5.56,5.56,0,0,1,1.08-4.11,4.94,4.94,0,0,1,3.35-2.13,4.89,4.89,0,0,1,3.88,1.26l-.94-7.12,1.51-.2,2.13,16.15-1.51.2-.18-1.36a4.84,4.84,0,0,1-3.38,2.19A5,5,0,0,1,383.29,448.92Zm.1-7a4.55,4.55,0,0,0,.78,5.9,3.27,3.27,0,0,0,5.09-.67,4.54,4.54,0,0,0-.78-5.9,3.27,3.27,0,0,0-5.09.67Z"/><path class="cls-4" d="M401.23,447.37l-3.59-14.87,4.72-1.14a7,7,0,0,1,2.57-.15,4.67,4.67,0,0,1,2.28,1,4.06,4.06,0,0,1,1.39,2.27,4,4,0,0,1-.19,2.64,4.67,4.67,0,0,1-1.55,1.92,6.71,6.71,0,0,1-2.34,1l-3.14.76,1.48,6.15Zm-1.63-13.91,1.45,6,3.12-.75a3.94,3.94,0,0,0,2.27-1.37,3.14,3.14,0,0,0-1.08-4.46,3.85,3.85,0,0,0-2.64-.19Z"/><path class="cls-4" d="M417.68,434.86a2.59,2.59,0,0,0-3-.9,2.39,2.39,0,0,0-1.69,1.77,5.54,5.54,0,0,0,.19,3.11l1.56,5-1.45.45-3.13-10,1.45-.46.25.8a4.31,4.31,0,0,1,6.94-.83Z"/><path class="cls-4" d="M423.47,439.62a5.61,5.61,0,0,1-2.85-7.34,4.71,4.71,0,0,1,6.72-2.58,5.64,5.64,0,0,1,2.84,7.34,4.82,4.82,0,0,1-2.73,2.84A5,5,0,0,1,423.47,439.62Zm-1.54-6.81a4.52,4.52,0,0,0,2.14,5.55,3.27,3.27,0,0,0,4.79-1.84,4.37,4.37,0,0,0,0-3.18,4.3,4.3,0,0,0-2.1-2.37,3.28,3.28,0,0,0-4.8,1.84Z"/><path class="cls-4" d="M435.56,434.62l2.52,5.31-1.38.65-6.4-13.53,1.38-.65.59,1.26a4.86,4.86,0,0,1,2.58-3.16,4.93,4.93,0,0,1,4,0,5.66,5.66,0,0,1,3.38,7.11,4.88,4.88,0,0,1-2.51,3A5,5,0,0,1,435.56,434.62ZM433.65,428a4.53,4.53,0,0,0,2.55,5.37,3.27,3.27,0,0,0,4.64-2.2,4.25,4.25,0,0,0-.27-3.16,4.3,4.3,0,0,0-2.27-2.21,3.27,3.27,0,0,0-4.65,2.2Z"/><path class="cls-4" d="M444.93,425.72a4.27,4.27,0,0,0,2.43,2,3.35,3.35,0,0,0,2.85-.18A4.66,4.66,0,0,0,452,426a4.13,4.13,0,0,0,.42-1.92l1.45.11a6,6,0,0,1-.71,2.56,5.79,5.79,0,0,1-2.26,2,5,5,0,0,1-4,.34,5.61,5.61,0,0,1-3.91-6.84,4.72,4.72,0,0,1,6.27-3.55,5.52,5.52,0,0,1,3.34,2.63Zm-.49-1.32,6-3.41a4.21,4.21,0,0,0-2.18-1.1,3.23,3.23,0,0,0-2.22.35,3.18,3.18,0,0,0-1.44,1.73A4.1,4.1,0,0,0,444.44,424.4Z"/><path class="cls-4" d="M459.1,414.18a2.58,2.58,0,0,0-3.12-.05,2.39,2.39,0,0,0-1.13,2.17,5.51,5.51,0,0,0,1,2.94l2.88,4.39-1.27.84-5.77-8.78,1.28-.83.45.69a3.93,3.93,0,0,1,1.77-2.58,3.89,3.89,0,0,1,4.67-.12Z"/><path class="cls-4" d="M460,411.84l-.82-1.12,1.09-.79-2-2.81,1.23-.9,2,2.81,2-1.43.82,1.13-2,1.42,5.36,7.37-1.23.9-5.36-7.37Z"/><path class="cls-4" d="M473,410.94l-2.68-8.79,1.29-1,4.68,15.48-1.28,1-1.4-4.6-9.92-5.52,1.29-1Z"/><path class="cls-4" d="M484,404.11,473.22,393.2l3.47-3.41a6.91,6.91,0,0,1,2.12-1.45,4.67,4.67,0,0,1,2.47-.31,4,4,0,0,1,2.36,1.24,4,4,0,0,1,1.19,2.36,4.57,4.57,0,0,1-.34,2.44,6.84,6.84,0,0,1-1.48,2.09l-2.3,2.26,4.44,4.51ZM475.4,393l4.34,4.42,2.28-2.25a3.92,3.92,0,0,0,1.24-2.34,2.75,2.75,0,0,0-.89-2.33,2.78,2.78,0,0,0-2.32-.94,3.91,3.91,0,0,0-2.37,1.19Z"/><path class="cls-4" d="M492.14,394a5.61,5.61,0,0,1-5.92-5.2,4.73,4.73,0,0,1,4.88-5.4l-1-.92,1-1.15,7.87,6.95-1,1.15-1-.91a4.84,4.84,0,0,1-1.11,3.87A5,5,0,0,1,492.14,394Zm-4.51-5.33a4.52,4.52,0,0,0,4.45,3.93,3.26,3.26,0,0,0,3.4-3.85,4.52,4.52,0,0,0-4.45-3.93,3.26,3.26,0,0,0-3.4,3.85Z"/><path class="cls-4" d="M493.38,380.61l-1.09-.86.83-1.06-2.73-2.15.94-1.2,2.74,2.16,1.5-1.91,1.09.86-1.5,1.91,7.15,5.63-.94,1.2-7.15-5.64Z"/><path class="cls-4" d="M502.88,370.21A2.59,2.59,0,0,0,500,371.3a2.39,2.39,0,0,0-.28,2.43,5.66,5.66,0,0,0,2,2.37l4.28,3-.89,1.24-8.55-6.09.89-1.24.68.48a3.93,3.93,0,0,1,.71-3.05,3.88,3.88,0,0,1,4.31-1.8Z"/><path class="cls-4" d="M510.39,370.49a5.6,5.6,0,0,1-6.7-4.13,4.7,4.7,0,0,1,3.79-6.12,5.65,5.65,0,0,1,6.7,4.14,4.83,4.83,0,0,1-.46,3.91A5,5,0,0,1,510.39,370.49Zm-5.34-4.5a4.53,4.53,0,0,0,5.05,3.13,3.28,3.28,0,0,0,2.71-4.37,4.55,4.55,0,0,0-5-3.13,3.4,3.4,0,0,0-2.42,1.53A3.35,3.35,0,0,0,505.05,366Z"/><path class="cls-4" d="M516,349.91l5.88,3.09-.71,1.35-5.88-3.09a2.7,2.7,0,0,0-2.17-.17,3.14,3.14,0,0,0-1.78,1.62,2.64,2.64,0,0,0,0,2.57,5.06,5.06,0,0,0,2.27,2.15l4.65,2.44-.71,1.35-9.3-4.87.71-1.35.83.43a4.17,4.17,0,0,1,.3-3.36,5,5,0,0,1,2.54-2.42A3.87,3.87,0,0,1,516,349.91Z"/></svg>